<svg xmlns="http://www.w3.org/2000/svg" viewBox="0 0 512 512">
  <g transform="translate(16,130) scale(0.494)" fill="#97A081">
    <polygon points="970.79 413.54 613.32 510.85 590.43 471.25 575.75 445.83 565.01 427.21 550.52 402.1 538.82 381.82 527.25 361.8 498.14 311.46 485.68 289.91 470.68 315.91 443.73 362.63 432.54 381.95 420.66 402.42 407.31 425.62 406.23 427.52 395.3 446.4 380.93 471.32 357.6 511.74 0 417.42 29.49 305.67 291.88 374.83 99.22 183.76 180.58 101.7 373.18 292.71 301.99 30.96 413.48 .64 484.79 262.45 553.95 0 665.69 29.49 596.54 292.01 787.67 99.29 869.73 180.65 678.53 373.37 940.35 302.05 970.79 413.54"/>
  </g>
</svg>
